<svg width="1697" height="135" viewBox="0 0 1697 135" fill="none" xmlns="http://www.w3.org/2000/svg">
	<path d="M686.144 0.0936664C761.4 -0.665892 789.251 3.24705 824.47 9.90574C859.684 16.5637 901.345 25.8296 935.382 31.7387C994.102 41.9329 1029.21 44.4209 1066.18 56.8021C1080.38 61.5579 1099.22 68.6392 1118.56 75.8321C1137.91 83.0275 1157.77 90.335 1174.05 95.5509C1222.25 110.992 1247.28 111.556 1295.78 113.593C1337.15 115.329 1412.69 115.218 1458.34 114.004C1517.57 112.429 1544.73 99.5334 1569.12 86.4091C1619.98 59.1146 1672.9 36.8446 1682.46 33.3242L1682.47 33.3203C1686.93 31.7852 1690.59 30.767 1695.45 29.7192C1695.72 29.6612 1695.99 29.833 1696.05 30.1026C1696.11 30.372 1695.93 30.6375 1695.66 30.6958C1690.84 31.7348 1687.22 32.741 1682.8 34.2608L1682.8 34.2618C1673.29 37.765 1620.41 60.0149 1569.59 87.2891C1545.09 100.47 1517.78 113.423 1458.37 115.003C1412.71 116.218 1337.14 116.329 1295.74 114.591C1247.23 112.554 1222.09 111.988 1173.75 96.5031C1157.44 91.2791 1137.55 83.9629 1118.21 76.7687C1098.86 69.5721 1080.05 62.4985 1065.86 57.7495C1028.98 45.4002 994.049 42.9381 935.21 32.7232C901.181 26.8154 859.434 17.5329 824.284 10.8872C789.138 4.24222 761.353 0.333766 686.155 1.09273C610.941 1.85186 491.932 7.12079 382.693 21.354C273.416 35.592 174.599 52.6724 115.257 78.5073C27.3992 116.756 1.22247 134.598 0.714193 134.839C0.464748 134.957 0.166464 134.851 0.048186 134.602C-0.0700917 134.353 0.0369386 134.055 0.286464 133.937C0.264164 133.947 0.26742 133.947 0.348964 133.896C0.412148 133.856 0.501273 133.798 0.620445 133.722C0.857765 133.571 1.20617 132.471 1.67317 133.056C2.60717 132.471 4.01584 131.604 5.96803 130.45C9.87273 128.142 15.9521 124.686 24.7627 120.043C42.3842 110.755 70.9321 96.7141 114.857 77.5912C174.351 51.6904 273.311 34.5977 382.564 20.3627C491.854 6.12291 610.904 0.853077 686.144 0.0936664Z" fill="#0F1A2D"/>
</svg>
